<svg id="Layer_1" data-name="Layer 1" xmlns="http://www.w3.org/2000/svg" viewBox="0 0 204.99 141.71"><defs><style>.cls-1{fill:#33669a;}.cls-2{fill:#ee1e3a;}.cls-3{font-size:15.95px;fill:#fff;font-family:MyriadPro-Regular, Myriad Pro;}.cls-4{letter-spacing:-0.04em;}</style></defs><path class="cls-1" d="M175.2,77.29a20.15,20.15,0,0,1-3.53.06l-2.91-.06h0c-1.29-5.6-7.19-28.36-28.73-42-15.2-9.61-30.62-9.89-37.46-9.93-5.49,0-17.76,0-30.57,6.11C46.12,43.81,37.91,71.37,36.38,76.89c0,0-1.51.25-2.6.31a8,8,0,0,1-2.89-.27c-2.11-1.53,6.89-33,33.77-48.8,15.44-9.06,30.57-9.3,37.61-9.33,7.19,0,29.41.21,48.46,15.59C171,50.77,177.26,75.91,175.2,77.29Z"/><path d="M168.4,121.38h0V74.77l-.71,0a22.73,22.73,0,0,1,14.55.25,17.94,17.94,0,0,1,6.43,3.84c5.6,5.41,5.31,13.56,5,21.75-.22,6.09-.46,11-4.06,15.17a17.25,17.25,0,0,1-6,4.39A22.87,22.87,0,0,1,168.4,121.38Z"/><path d="M36.75,121.38h0V74.77l.68,0A21.44,21.44,0,0,0,23.31,75a17.2,17.2,0,0,0-6.24,3.84c-5.44,5.41-5.15,13.56-4.87,21.75.22,6.09.46,11,3.95,15.17A16.81,16.81,0,0,0,22,120.15,21.6,21.6,0,0,0,36.75,121.38Z"/><rect class="cls-2" x="152.63" y="80.28" width="5.42" height="7.63"/><rect class="cls-2" x="122.75" y="71.78" width="6.3" height="24.64"/><rect class="cls-2" x="143.9" y="78.85" width="5.42" height="10.69"/><rect class="cls-2" x="111.85" y="74.02" width="6.68" height="20.35"/><rect class="cls-2" x="99.15" y="68.48" width="6.3" height="30.57"/><rect class="cls-2" x="134.05" y="73.01" width="6.05" height="22.03"/><rect class="cls-2" x="87.43" y="73.92" width="6.68" height="20.35"/><rect class="cls-2" x="76.02" y="71.71" width="6.3" height="24.64"/><rect class="cls-2" x="65.93" y="73.01" width="6.05" height="22.03"/><rect class="cls-2" x="56.16" y="78.85" width="5.42" height="10.69"/><rect class="cls-2" x="46.96" y="80.28" width="5.42" height="7.63"/><rect class="cls-2" x="39.47" y="81.99" width="5.42" height="4.4"/><rect class="cls-2" x="160.1" y="81.99" width="5.42" height="4.4"/><text class="cls-3" transform="translate(42.18 113.87) scale(1.27 1)"><tspan class="cls-4">L</tspan><tspan x="6.91" y="0">OVE MUSIC</tspan></text></svg>